<?xml version="1.0" encoding="UTF-8" standalone="no"?>
<!DOCTYPE svg PUBLIC "-//W3C//DTD SVG 1.1//EN" "http://www.w3.org/Graphics/SVG/1.1/DTD/svg11.dtd">
<svg width="100%" height="100%" viewBox="0 0 225 225" version="1.1" xmlns="http://www.w3.org/2000/svg" xmlns:xlink="http://www.w3.org/1999/xlink" xml:space="preserve" xmlns:serif="http://www.serif.com/" style="fill-rule:evenodd;clip-rule:evenodd;stroke-linejoin:round;stroke-miterlimit:2;">
    <g transform="matrix(1.60328,0,0,1.78866,-100.328,-66.4762)">
        <path d="M148.962,46.055C170.169,51.198 187.321,66.852 193.059,86.308C194.993,92.849 195.305,104.199 193.683,110.964C190.44,124.829 182.456,136.402 170.356,144.676C164.742,148.534 161.187,149.26 151.27,148.813C131.061,147.919 112.662,137.184 104.99,121.921C102.121,116.219 101.06,111.355 100.998,104.255C100.936,94.247 103.555,88.041 110.229,82.171C116.03,77.083 123.577,74.176 132.184,73.673C145.033,72.89 155.262,79.655 159.877,91.955C163.557,101.683 158.318,113.368 148.9,116.554C143.099,118.455 139.294,117.784 135.739,114.15C132.184,110.516 131.747,105.988 134.367,100.453C135.053,99.111 135.552,97.546 135.552,97.043C135.552,95.421 133.431,94.079 131.061,94.303C129.253,94.471 128.816,94.862 127.194,97.769C125.697,100.397 125.261,101.962 125.074,105.652C124.699,111.746 126.009,115.268 129.876,118.958C134.804,123.711 140.542,125.555 146.904,124.381C152.58,123.375 156.01,121.754 160.189,117.952C164.243,114.374 166.738,110.293 168.298,104.926C171.042,95.533 166.738,83.569 157.694,75.406C147.59,66.237 133.494,63.945 118.899,69.033C106.861,73.17 98.815,80.606 94.885,91.116C93.638,94.583 93.451,96.092 93.451,104.255C93.451,112.194 93.638,114.094 94.885,117.84C97.692,126.506 103.056,134.445 110.229,140.483C117.901,146.912 124.512,150.267 135.552,153.509L142.725,155.578L137.236,155.969C133.806,156.249 129.502,156.137 125.697,155.69C88.149,151.497 63.512,119.126 72.806,86.252C78.357,66.741 95.26,51.366 116.903,46.166C123.764,44.489 123.889,44.489 134.305,44.713C141.789,44.825 145.095,45.104 148.962,46.055Z" style="fill:url(#_Linear1);"/>
    </g>
    <defs>
        <linearGradient id="_Linear1" x1="0" y1="0" x2="1" y2="0" gradientUnits="userSpaceOnUse" gradientTransform="matrix(111.638,101.354,-113.073,100.068,91.2756,61.6036)"><stop offset="0" style="stop-color:rgb(255,99,0);stop-opacity:1"/><stop offset="0.51" style="stop-color:rgb(255,25,186);stop-opacity:1"/><stop offset="1" style="stop-color:rgb(255,0,251);stop-opacity:1"/></linearGradient>
    </defs>
</svg>
